<svg width="512" height="512" viewBox="0 0 512 512" fill="none" xmlns="http://www.w3.org/2000/svg">
<circle cx="256" cy="256" r="256" fill="black"/>
<path d="M94.7161 367.996C107.946 375.999 124.027 380 142.959 380C160.751 380 176.262 376.227 189.492 368.682C202.722 361.136 212.987 350.39 220.286 336.442C227.813 322.495 231.577 306.032 231.577 287.054V131H179.57V287.054C179.57 303.745 176.376 316.092 169.989 324.095C163.603 332.098 154.593 336.099 142.959 336.099C131.554 336.099 122.658 331.983 116.272 323.752C109.885 315.521 106.577 302.716 106.349 285.339L54 287.74C54.2281 305.574 57.7637 321.466 64.6067 335.413C71.6778 349.132 81.7143 359.993 94.7161 367.996Z" fill="white"/>
<path d="M310.956 308.318L249.026 131H240.016V240.085L288.374 373.826H332.854L389.993 216.744V374.512H442V131H372.543L310.956 308.318Z" fill="white"/>
</svg>
